<svg xmlns="http://www.w3.org/2000/svg" version="1.1" xmlns:xlink="http://www.w3.org/1999/xlink" width="921.49" height="1014.2"><svg id="SvgjsSvg1007" data-name="Layer 2" xmlns="http://www.w3.org/2000/svg" viewBox="0 0 921.49 1014.2">
  <g id="SvgjsG1006" data-name="Layer 1">
    <path d="m856.96,347.74c3.24,76.78-60.39,87.79-35.62,91.75,36.7,12.32,99.89,6.23,99.82,59.05,1.44,20.32-1.1,47.77-22.73,56.47-2.38,2.15-10.87,1.7-10.3,5.69,21.44,16.54,20.24,50.24,11.89,73.55-8.02,16.89-25.91,26.03-40.1,37.15-27.05,18.69-56.17,33.92-86.39,46.81-61.23,25.65-126.3,42.11-192.21,49.79-10.03,1.27-8.93-.19-10.98,9.85-10.53,51.72-20.68,103.51-30.92,155.29-5.98,22.32-4.53,49.16-20.67,67.13-25.94,18.74-66.61,16.83-95.05,4.51-26.19-19.31-20.74-62.42-30.31-91.12-7.63-37.3-14.91-74.69-22.48-112.03-3.7-8.58-1.28-31.78-10.94-34.24-62.46-6.9-125.17-20.16-183.03-45.34-63.58-27.18-123.37-71.42-153.53-135.16-43.49-94.2-27.02-215.32,54.76-283.45,56.07-51.43,128.42-81.47,201.33-100.34,28.23-7.61,56.98-13.5,86.06-16.75,3.57-.9,8.75-.29,11.25-3.32,2.86-9.36,3.6-19.38,5.81-28.94,7.03-32.83,12.93-65.89,19.7-98.78,3.86-20.33,7.97-44.97,31.57-50.48,29.25-6.38,75.11-11.44,92.18,18.97,12.7,39.01,16.51,80.62,25.98,120.54,7.98,45.5,3,33.24,45.44,37.87,100.43,12.6,259.02,36.28,259.47,165.52Zm-165.4,106.27c-52.73-3.25-131.34-5.87-150.57-65.75-3.55-14.55-3.46-30.17-2.21-45.07-1.96-9,12.8-32.39.59-34.21-24.88-3.75-50.43-4.35-75.39-1.41-28.3,2.34-56.35,11.33-80.65,25.98-6.01,4.02-4.64,13.22-6.78,19.47-3.37,17.07-6.52,34-10.42,51.02-2.55,13.36-22.66,10.04-32.91,14.71-34.96,7.75-69.59,16.42-104.58,24.06-38.34,8.66-76.57,18-114.88,26.65-16.99,6.39-54.69,6.3-63.51,21.53-14.69,41.95,16.2,42.04,47.05,49.61,37.15,8.34,73.97,17.23,111.1,25.55,36.5,8.96,73.24,16.72,109.69,25.41,13.53,2.67,26.87,6.64,40.49,9.41,5.44.85,7.35,5.73,8.2,10.48,22.84,116.33,46.15,232.27,69.28,348.46-.21,29.18,37.83,32.71,57.13,19.56,9-10.81,7.76-27.05,11.51-40.18,5.02-26.21,10.19-52.53,15.76-78.48,11.88-61.09,24.03-122.02,36.5-183.01,4.12-22.09,9.01-43.91,12.8-66.08.6-12.38,14.62-11.49,23.63-14.14,46.79-11.5,93.86-20.92,140.36-33.21,10.15-5.39,17.42-17.39,29.82-18.2,19.43-5.91,40.14-4.7,60.04-2.77,14.92-1.68,29.35-6.78,44.21-9.46,30.75-2,29.48-54.66-1.92-54.28-36.41-8.95-73.17-16.68-109.67-25.65-21.04-3.62-43.21,1.8-64.67,0Zm-198.06-251.05c-130.04.36-267.86,24.61-373.99,104.11-48.31,37.65-89.74,93.97-89.51,157.19,43.77-11.07,92.64-22.74,138.28-33.24,30.29-6.52,60.35-14,90.6-20.75,22.78-5.3,30.6-3.34,39.16-27.29,47.94-90.1,162.05-109.16,254.82-94.47,34.64,6.55,25.42,9.34,15.55,37-11.22,30.7-8.47,72.02,25.46,86.39,56.01,28.6,199.85,39.45,228.53-30.75,14.07-37.36,2.06-82.56-29.06-107.99-84.48-63.38-197.88-68.33-299.84-70.2Zm-155.98,419.95c-69.49-18.74-141.07-33.08-211.56-50.07-26.18-6.34-52.51-12.15-78.66-18.34-10,1.16,6.9,22.95,8.06,28.48,58.51,102.15,181.46,141.01,291.49,157.16,4.65-.33,13.05,4.24,15.11-1.51-.42-9.67-3.15-19.42-4.93-28.95-7.16-28.58-8.79-59.34-19.52-86.77Zm459.42-60.18c-28.77-2.37-46.34,25.04-69.65,37.53-23.38,13.92-47.82,25.57-73.48,34.65-11.44,3.2-22.69,6.47-34.41,8.61-9.25,2.97-25.19-.88-28.54,10.42-4.21,22.08-9.52,43.74-12.9,65.85.06,6.84-8.76,20.15.41,22.97,66.06-8.79,131.44-25.73,191.98-53.77,26.1-13.56,113.4-53.27,106.3-86.47.34-12.76-6.92-22.04-19.48-24.77-19.95-6.07-39-15.05-60.23-15.02ZM490.29,181.79c7.69-1.81,33.24,4.48,34.67-4.13-4.11-24.27-9.7-48.29-13.87-72.66-5.64-22.57-7.08-46.7-15.73-68.36-10.8-11.32-30.04-11.02-44.09-6.44-20.62,7.86-14.69,37.51-21.65,54.99-5.9,30.72-11.9,61.17-18.27,91.79-3.26,13.28,16.58,5.03,23.84,6.34,18.28-.76,36.73-1.54,55.1-1.53Zm-19.61,418c7.19-20.68,1.88-55.28,26.37-63.74,31.3-8.79,63.22-15.14,94.87-22.53,21.94-5.18,30.87-6.95,1.69-12.8-26.67-9-93.59-14.17-109.55-32.24-9.81-17.92-7.5-40.71-15.49-58.7-10.05,17.08-5.13,43.85-17.87,61.25-8.47,8.86-22.14,9.33-33.38,12.54-23.75,5.76-47.56,11.01-71.29,16.63-31.63,5.98-24.52,8.03,1.72,14.19,32.72,8.42,67.28,12.62,98.82,24.72,18.53,15.53,11.23,45.5,21.4,65.1,1.74-1.07,2.34-2.61,2.69-4.42Zm160.87-295.62c49.16,4.9,7.55-35.75,74.39-30.3,30.94-1.58,21.44,26.64,40.24,30.2,15.36.83,33.65-2.5,46.95,6.78,21.01,37.2-26.04,35.18-24.63,47.99,10.72,33.26-4.75,40.68-35.67,37.56-11.56.08-21.3-3.44-32.12-7.38-7.03-2.49-13.52,3.11-20.13,4.8-15.53,3.68-32.94,4.89-48.49.73-20.15-8.75-1.41-33.44-9.51-41.69-16.25-7.19-31.45-13.75-25.82-34.92,2.98-14.96,23.31-12.37,34.79-13.78Zm59.07-12.16c-6.69,8.55-8.39,26.45-20.04,29.05-7.05,1.93-58.49-5.96-46.7,8.1,7.29,6.38,38.35,11.93,36.23,21.77-4.5,10.67-24.53,37.2,2.04,28.2,12.37-4.38,25.02-15.52,38.15-14.56,28.55,11.99,62.8,36.34,33.01-14.57,2.07-10.85,31.32-13.96,38.59-23.44,4.61-13.33-54.84,3.13-56.77-11.81-6.41-8.36-9.97-33.18-24.51-22.75Z"></path>
  </g>
</svg><style>@media (prefers-color-scheme: light) { :root { filter: none; } }
@media (prefers-color-scheme: dark) { :root { filter: none; } }
</style></svg>